<svg width="329" height="98" viewBox="0 0 329 98" fill="none" xmlns="http://www.w3.org/2000/svg">
<g clip-path="url(#clip0_5539_13012)">
<path fill-rule="evenodd" clip-rule="evenodd" d="M80.3279 58.454L42.588 20.5122L36.6241 26.5081L74.3608 64.4499C75.1539 65.2421 76.2264 65.6867 77.3443 65.6867C78.4623 65.6867 79.5348 65.2421 80.3279 64.4499C81.1156 63.6531 81.5577 62.5754 81.5577 61.452C81.5577 60.3286 81.1156 59.2508 80.3279 58.454ZM35.2999 27.8434L29.3359 33.8394L70.5336 75.258C71.3262 76.05 72.3982 76.4945 73.5156 76.4945C74.633 76.4945 75.705 76.05 76.4976 75.258C77.2853 74.4613 77.7274 73.3835 77.7274 72.2601C77.7274 71.1367 77.2853 70.0589 76.4976 69.2621L35.2999 27.8434ZM22.0444 41.1667L28.0083 35.1708L62.5829 69.9276C63.3708 70.725 63.813 71.8033 63.813 72.9272C63.813 74.0511 63.3708 75.1294 62.5829 75.9267C61.7898 76.7189 60.7173 77.1634 59.5994 77.1634C58.4814 77.1634 57.4089 76.7189 56.6158 75.9267L22.0444 41.1667Z" fill="url(#paint0_linear_5539_13012)"/>
<path fill-rule="evenodd" clip-rule="evenodd" d="M26.6835 48.4976L11.5897 63.6713C10.7972 64.4633 9.72515 64.9078 8.60773 64.9078C7.49032 64.9078 6.41829 64.4633 5.62575 63.6713C4.83784 62.874 4.39563 61.7957 4.39563 60.6718C4.39563 59.5479 4.83784 58.4696 5.62575 57.6723L20.7196 42.5017L26.6835 48.4976ZM28.008 49.8292L8.67908 69.2618C7.89136 70.0585 7.44924 71.1363 7.44924 72.2597C7.44924 73.3831 7.89136 74.4609 8.67908 75.2577C9.47161 76.0496 10.5436 76.4941 11.6611 76.4941C12.7785 76.4941 13.8505 76.0496 14.643 75.2577L33.975 55.8251L28.008 49.8292ZM22.7798 69.746C21.9918 70.5433 21.5496 71.6216 21.5496 72.7455C21.5496 73.8695 21.9918 74.9477 22.7798 75.7451C23.5723 76.537 24.6443 76.9815 25.7617 76.9815C26.8791 76.9815 27.9511 76.537 28.7437 75.7451L41.2577 63.1566L35.2937 57.1575L22.7798 69.746Z" fill="url(#paint1_linear_5539_13012)"/>
</g>
<path d="M116.903 37.0405C107.104 37.0405 101 46.2095 101 57.7703C101 69.3311 106.863 78.5 116.18 78.5C121.16 78.5 125.096 76.2676 127.345 73.1581L127.827 73.3176V77.7027H133.851V37.8378H127.827V40.9473L127.345 41.1068C125.096 38.7149 121.803 37.0405 116.903 37.0405ZM117.626 73.3176C110.96 73.3176 107.024 66.3014 107.024 57.7703C107.024 49.2392 110.96 42.3027 117.626 42.3027C121.722 42.3027 125.337 43.8176 127.827 46.3689V66.5405C125.658 71.4838 121.803 73.3176 117.626 73.3176Z" fill="white"/>
<path d="M158.192 73.3176C155.06 73.0784 152.731 71.4041 152.731 67.7365V19.5H146.707V67.577C146.707 74.673 150.803 78.4203 157.55 78.4203L158.192 73.3176Z" fill="white"/>
<path d="M162.175 43.1H167.797V64.7068C167.797 73.3176 172.857 78.1014 179.604 78.1014C182.094 78.1014 184.503 77.7027 186.511 76.427L185.146 71.9622C183.62 72.7595 181.853 72.9986 179.765 72.9986C176.23 72.9986 173.741 70.527 173.741 64.7865V43.1H183.781V37.8378H173.741V25.0811H167.797V37.8378H162.175V43.1Z" fill="white"/>
<path d="M193.731 77.7824H199.755V48.0432C202.245 44.4554 205.779 42.1432 209.956 42.1432H211.562V37.0405H210.598C206.261 37.0405 202.566 39.273 200.237 42.1432L199.755 41.9838V37.8378H193.731V77.7824Z" fill="white"/>
<path d="M250.217 37.8378H244.193V61.8365C244.193 69.8892 239.695 73.3176 234.073 73.3176C228.451 73.3176 224.033 69.8892 224.033 61.8365V37.8378H218.009V61.8365C218.009 72.9189 225.158 78.5 234.073 78.5C243.069 78.5 250.217 72.9189 250.217 61.8365V37.8378Z" fill="white"/>
<path d="M260.981 77.7027H267.005V37.8378H260.981V77.7027ZM260.339 25.1608C260.339 27.1541 261.945 28.8284 263.953 28.8284C266.041 28.8284 267.568 27.1541 267.568 25.1608C267.568 23.0081 266.041 21.3338 263.953 21.3338C261.945 21.3338 260.339 23.0081 260.339 25.1608Z" fill="white"/>
<path d="M275.334 75.9486C279.029 77.5432 283.045 78.5 287.141 78.5C293.888 78.5 300.233 74.8324 300.233 66.7797C300.233 60.3216 295.816 57.2122 288.828 54.6608C283.928 52.7473 281.76 51.1527 281.76 48.3622C281.76 44.3757 284.812 42.3027 288.265 42.3027C291.478 42.3027 294.771 43.5784 297.823 45.0135L299.35 40.15C295.896 38.3959 292.121 37.0405 288.185 37.0405C281.679 37.0405 275.816 40.8676 275.816 48.3622C275.816 54.5014 280.394 57.2122 286.739 59.6838C292.121 61.9162 294.209 63.5108 294.209 66.7797C294.209 71.3243 290.755 73.3973 287.061 73.3973C283.687 73.3973 280.153 72.1216 276.86 70.6068L275.334 75.9486Z" fill="white"/>
<path d="M304.663 43.1H310.286V64.7068C310.286 73.3176 315.346 78.1014 322.093 78.1014C324.582 78.1014 326.992 77.7027 329 76.427L327.635 71.9622C326.108 72.7595 324.341 72.9986 322.253 72.9986C318.719 72.9986 316.229 70.527 316.229 64.7865V43.1H326.269V37.8378H316.229V25.0811H310.286V37.8378H304.663V43.1Z" fill="white"/>
<defs>
<linearGradient id="paint0_linear_5539_13012" x1="31.4153" y1="-2.31558" x2="62.0541" y2="92.5124" gradientUnits="userSpaceOnUse">
<stop stop-color="#68D5B4"/>
<stop offset="0.0001" stop-color="#BFD568"/>
<stop offset="0.500411" stop-color="#51C7C7"/>
<stop offset="1" stop-color="#0094FF"/>
</linearGradient>
<linearGradient id="paint1_linear_5539_13012" x1="33.089" y1="49.7081" x2="5.07348" y2="61.3182" gradientUnits="userSpaceOnUse">
<stop stop-color="#0089D9"/>
<stop offset="0.447917" stop-color="#00A2FF"/>
<stop offset="1" stop-color="#51C7C7"/>
</linearGradient>
<clipPath id="clip0_5539_13012">
<rect width="84" height="98" fill="white"/>
</clipPath>
</defs>
</svg>
