<svg width="230" height="230" viewBox="0 0 230 230" fill="none" xmlns="http://www.w3.org/2000/svg">
<rect x="1" y="1" width="228" height="228" rx="114" fill="#F5F6F8"/>
<g clip-path="url(#clip0_8638_20340)">
<path d="M136.445 85.9412C136.128 85.9412 135.789 85.9412 135.472 85.9837C135.515 85.517 135.536 85.0504 135.536 84.5837C135.536 74.8904 127.672 67 118.012 67C113.785 67 109.705 68.5272 106.513 71.3058C103.807 73.6602 101.863 76.863 100.996 80.3416C99.6008 79.8962 98.1423 79.6628 96.6415 79.6628C88.8203 79.6628 82.4789 86.0473 82.4789 93.8741C82.4789 101.701 88.8415 108.085 96.6415 108.085H106.428C107.168 108.085 107.76 107.47 107.76 106.728C107.76 105.985 107.168 105.392 106.428 105.392H96.6415C90.3 105.392 85.1634 100.216 85.1634 93.8741C85.1634 87.532 90.3212 82.3566 96.6415 82.3566C98.3114 82.3566 99.9179 82.7172 101.44 83.3959C101.82 83.5656 102.264 83.5656 102.645 83.3535C103.004 83.1626 103.279 82.7808 103.342 82.3778C103.85 78.878 105.604 75.6752 108.289 73.342C110.973 70.9876 114.44 69.6938 118.012 69.6938C126.193 69.6938 132.851 76.3752 132.851 84.5837C132.851 85.517 132.767 86.4715 132.598 87.3836C132.513 87.8502 132.661 88.3168 132.999 88.6138C133.337 88.932 133.824 89.038 134.268 88.932C134.986 88.7411 135.726 88.635 136.466 88.635C141.074 88.635 144.837 92.3893 144.837 97.0345C144.837 101.68 141.095 105.434 136.466 105.434H123.762C123.022 105.434 122.43 106.028 122.43 106.77C122.43 107.513 123.022 108.128 123.762 108.128H136.466C142.554 108.128 147.521 103.164 147.521 97.0345C147.521 90.9046 142.575 85.9412 136.466 85.9412H136.445Z" fill="#616060"/>
<path d="M124.037 97.8405C124.565 97.3103 124.565 96.4618 124.037 95.9316L116.068 87.9351C115.793 87.6594 115.391 87.5109 115.032 87.5533C114.63 87.5109 114.229 87.6594 113.954 87.9351L105.985 95.9316C105.456 96.4618 105.456 97.3103 105.985 97.8405C106.513 98.3708 107.38 98.3496 107.887 97.8405L113.785 91.9227V113.664C113.785 114.406 114.376 115.021 115.116 115.021C115.856 115.021 116.469 114.406 116.469 113.664V92.1348L122.155 97.8405C122.663 98.3496 123.55 98.3496 124.058 97.8405H124.037Z" fill="#616060"/>
</g>
<path d="M67.125 139H70.065C72.915 139 74.88 137.455 74.88 134.08C74.88 130.69 72.915 129.235 69.93 129.235H67.125V139ZM69.465 137.125V131.11H69.795C71.37 131.11 72.495 131.755 72.495 134.08C72.495 136.39 71.37 137.125 69.795 137.125H69.465ZM76.4958 139H78.8058V134.74C79.1958 133.75 79.8708 133.39 80.4258 133.39C80.7558 133.39 80.9208 133.42 81.1908 133.48L81.6258 131.515C81.4158 131.41 81.1608 131.365 80.7258 131.365C79.9758 131.365 79.1508 131.83 78.6108 132.835H78.5508L78.3858 131.545H76.4958V139ZM84.0254 139.18C84.8654 139.18 85.5404 138.805 86.1554 138.25H86.2154L86.3804 139H88.2704V134.77C88.2704 132.43 87.1904 131.365 85.2704 131.365C84.1004 131.365 83.0354 131.74 82.0604 132.34L82.8704 133.84C83.6204 133.42 84.2204 133.21 84.8204 133.21C85.5854 133.21 85.9004 133.57 85.9604 134.185C83.0204 134.485 81.8054 135.34 81.8054 136.915C81.8054 138.16 82.6604 139.18 84.0254 139.18ZM84.8204 137.38C84.3104 137.38 84.0254 137.17 84.0254 136.735C84.0254 136.21 84.4754 135.805 85.9604 135.61V136.795C85.6004 137.155 85.2854 137.38 84.8204 137.38ZM92.7595 142.135C95.3545 142.135 96.9895 141.025 96.9895 139.45C96.9895 138.1 95.9545 137.545 94.1095 137.545H92.9245C92.1295 137.545 91.8295 137.38 91.8295 137.02C91.8295 136.78 91.9045 136.66 92.0695 136.51C92.3995 136.6 92.6995 136.645 92.9545 136.645C94.6045 136.645 95.9245 135.88 95.9245 134.14C95.9245 133.78 95.8195 133.435 95.6995 133.225H96.8695V131.545H94.1245C93.7795 131.425 93.3745 131.365 92.9545 131.365C91.3345 131.365 89.8345 132.25 89.8345 134.065C89.8345 134.935 90.3145 135.625 90.8395 135.985V136.045C90.3595 136.39 90.0145 136.93 90.0145 137.455C90.0145 138.07 90.2995 138.46 90.6895 138.73V138.79C89.9995 139.15 89.6395 139.645 89.6395 140.26C89.6395 141.595 91.0345 142.135 92.7595 142.135ZM92.9545 135.25C92.4145 135.25 92.0095 134.845 92.0095 134.065C92.0095 133.3 92.3995 132.91 92.9545 132.91C93.5095 132.91 93.8995 133.3 93.8995 134.065C93.8995 134.845 93.5095 135.25 92.9545 135.25ZM93.1345 140.695C92.1745 140.695 91.5445 140.425 91.5445 139.885C91.5445 139.645 91.6645 139.435 91.9045 139.225C92.1295 139.285 92.4145 139.315 92.9545 139.315H93.6745C94.3795 139.315 94.7695 139.405 94.7695 139.855C94.7695 140.335 94.0795 140.695 93.1345 140.695ZM103.054 139.18C103.894 139.18 104.569 138.805 105.184 138.25H105.244L105.409 139H107.299V134.77C107.299 132.43 106.219 131.365 104.299 131.365C103.129 131.365 102.064 131.74 101.089 132.34L101.899 133.84C102.649 133.42 103.249 133.21 103.849 133.21C104.614 133.21 104.929 133.57 104.989 134.185C102.049 134.485 100.834 135.34 100.834 136.915C100.834 138.16 101.689 139.18 103.054 139.18ZM103.849 137.38C103.339 137.38 103.054 137.17 103.054 136.735C103.054 136.21 103.504 135.805 104.989 135.61V136.795C104.629 137.155 104.314 137.38 103.849 137.38ZM109.118 139H111.428V134.005C111.893 133.585 112.208 133.33 112.733 133.33C113.333 133.33 113.603 133.645 113.603 134.68V139H115.928V134.38C115.928 132.52 115.238 131.365 113.618 131.365C112.598 131.365 111.848 131.875 111.233 132.475H111.173L111.008 131.545H109.118V139ZM120.416 139.18C121.121 139.18 121.856 138.805 122.381 138.28H122.426L122.591 139H124.496V128.515H122.171V131.02L122.246 132.13C121.766 131.665 121.271 131.365 120.446 131.365C118.901 131.365 117.371 132.835 117.371 135.265C117.371 137.695 118.571 139.18 120.416 139.18ZM121.031 137.275C120.236 137.275 119.756 136.675 119.756 135.25C119.756 133.855 120.341 133.255 121.001 133.255C121.376 133.255 121.811 133.375 122.171 133.69V136.66C121.826 137.125 121.481 137.275 121.031 137.275ZM129.557 139H132.497C135.347 139 137.312 137.455 137.312 134.08C137.312 130.69 135.347 129.235 132.362 129.235H129.557V139ZM131.897 137.125V131.11H132.227C133.802 131.11 134.927 131.755 134.927 134.08C134.927 136.39 133.802 137.125 132.227 137.125H131.897ZM138.927 139H141.237V134.74C141.627 133.75 142.302 133.39 142.857 133.39C143.187 133.39 143.352 133.42 143.622 133.48L144.057 131.515C143.847 131.41 143.592 131.365 143.157 131.365C142.407 131.365 141.582 131.83 141.042 132.835H140.982L140.817 131.545H138.927V139ZM148.085 139.18C149.99 139.18 151.745 137.74 151.745 135.265C151.745 132.79 149.99 131.365 148.085 131.365C146.195 131.365 144.44 132.79 144.44 135.265C144.44 137.74 146.195 139.18 148.085 139.18ZM148.085 137.305C147.215 137.305 146.81 136.51 146.81 135.265C146.81 134.035 147.215 133.225 148.085 133.225C148.955 133.225 149.36 134.035 149.36 135.265C149.36 136.51 148.955 137.305 148.085 137.305ZM153.21 141.73H155.52V139.57L155.445 138.415C155.97 138.91 156.555 139.18 157.2 139.18C158.805 139.18 160.32 137.71 160.32 135.145C160.32 132.85 159.21 131.365 157.41 131.365C156.645 131.365 155.895 131.74 155.325 132.265H155.265L155.1 131.545H153.21V141.73ZM156.645 137.275C156.285 137.275 155.895 137.17 155.52 136.84V133.885C155.925 133.45 156.285 133.255 156.72 133.255C157.545 133.255 157.935 133.87 157.935 135.175C157.935 136.69 157.365 137.275 156.645 137.275ZM68.835 158.18C69.675 158.18 70.35 157.805 70.965 157.25H71.025L71.19 158H73.08V153.77C73.08 151.43 72 150.365 70.08 150.365C68.91 150.365 67.845 150.74 66.87 151.34L67.68 152.84C68.43 152.42 69.03 152.21 69.63 152.21C70.395 152.21 70.71 152.57 70.77 153.185C67.83 153.485 66.615 154.34 66.615 155.915C66.615 157.16 67.47 158.18 68.835 158.18ZM69.63 156.38C69.12 156.38 68.835 156.17 68.835 155.735C68.835 155.21 69.285 154.805 70.77 154.61V155.795C70.41 156.155 70.095 156.38 69.63 156.38ZM74.8991 158H77.2091V153.005C77.6741 152.585 77.9891 152.33 78.5141 152.33C79.1141 152.33 79.3841 152.645 79.3841 153.68V158H81.7091V153.38C81.7091 151.52 81.0191 150.365 79.3991 150.365C78.3791 150.365 77.6291 150.875 77.0141 151.475H76.9541L76.7891 150.545H74.8991V158ZM86.71 158H89.05V148.235H86.71V158ZM91.1149 158H93.4249V153.005C93.8749 152.555 94.2799 152.33 94.6249 152.33C95.2249 152.33 95.4949 152.645 95.4949 153.68V158H97.8199V153.005C98.2699 152.555 98.6599 152.33 99.0199 152.33C99.6049 152.33 99.8899 152.645 99.8899 153.68V158H102.2V153.38C102.2 151.52 101.48 150.365 99.8599 150.365C98.8699 150.365 98.1799 150.935 97.5349 151.595C97.1599 150.8 96.5149 150.365 95.4799 150.365C94.4899 150.365 93.8299 150.875 93.2299 151.475H93.1699L93.0049 150.545H91.1149V158ZM105.925 158.18C106.765 158.18 107.44 157.805 108.055 157.25H108.115L108.28 158H110.17V153.77C110.17 151.43 109.09 150.365 107.17 150.365C106 150.365 104.935 150.74 103.96 151.34L104.77 152.84C105.52 152.42 106.12 152.21 106.72 152.21C107.485 152.21 107.8 152.57 107.86 153.185C104.92 153.485 103.705 154.34 103.705 155.915C103.705 157.16 104.56 158.18 105.925 158.18ZM106.72 156.38C106.21 156.38 105.925 156.17 105.925 155.735C105.925 155.21 106.375 154.805 107.86 154.61V155.795C107.5 156.155 107.185 156.38 106.72 156.38ZM114.659 161.135C117.254 161.135 118.889 160.025 118.889 158.45C118.889 157.1 117.854 156.545 116.009 156.545H114.824C114.029 156.545 113.729 156.38 113.729 156.02C113.729 155.78 113.804 155.66 113.969 155.51C114.299 155.6 114.599 155.645 114.854 155.645C116.504 155.645 117.824 154.88 117.824 153.14C117.824 152.78 117.719 152.435 117.599 152.225H118.769V150.545H116.024C115.679 150.425 115.274 150.365 114.854 150.365C113.234 150.365 111.734 151.25 111.734 153.065C111.734 153.935 112.214 154.625 112.739 154.985V155.045C112.259 155.39 111.914 155.93 111.914 156.455C111.914 157.07 112.199 157.46 112.589 157.73V157.79C111.899 158.15 111.539 158.645 111.539 159.26C111.539 160.595 112.934 161.135 114.659 161.135ZM114.854 154.25C114.314 154.25 113.909 153.845 113.909 153.065C113.909 152.3 114.299 151.91 114.854 151.91C115.409 151.91 115.799 152.3 115.799 153.065C115.799 153.845 115.409 154.25 114.854 154.25ZM115.034 159.695C114.074 159.695 113.444 159.425 113.444 158.885C113.444 158.645 113.564 158.435 113.804 158.225C114.029 158.285 114.314 158.315 114.854 158.315H115.574C116.279 158.315 116.669 158.405 116.669 158.855C116.669 159.335 115.979 159.695 115.034 159.695ZM123.142 158.18C124.027 158.18 125.047 157.895 125.827 157.34L125.077 155.945C124.552 156.245 124.012 156.41 123.472 156.41C122.527 156.41 121.822 155.975 121.612 154.97H126.007C126.052 154.76 126.097 154.37 126.097 153.95C126.097 151.925 125.047 150.365 122.887 150.365C121.102 150.365 119.362 151.85 119.362 154.265C119.362 156.755 121.012 158.18 123.142 158.18ZM121.582 153.41C121.732 152.54 122.287 152.12 122.947 152.12C123.787 152.12 124.117 152.675 124.117 153.41H121.582ZM130.758 158H133.098V153.98H136.323V158H138.648V148.235H136.323V151.955H133.098V148.235H130.758V158ZM144.075 158.18C144.96 158.18 145.98 157.895 146.76 157.34L146.01 155.945C145.485 156.245 144.945 156.41 144.405 156.41C143.46 156.41 142.755 155.975 142.545 154.97H146.94C146.985 154.76 147.03 154.37 147.03 153.95C147.03 151.925 145.98 150.365 143.82 150.365C142.035 150.365 140.295 151.85 140.295 154.265C140.295 156.755 141.945 158.18 144.075 158.18ZM142.515 153.41C142.665 152.54 143.22 152.12 143.88 152.12C144.72 152.12 145.05 152.675 145.05 153.41H142.515ZM148.508 158H150.818V153.74C151.208 152.75 151.883 152.39 152.438 152.39C152.768 152.39 152.933 152.42 153.203 152.48L153.638 150.515C153.428 150.41 153.173 150.365 152.738 150.365C151.988 150.365 151.163 150.83 150.623 151.835H150.563L150.398 150.545H148.508V158ZM157.8 158.18C158.685 158.18 159.705 157.895 160.485 157.34L159.735 155.945C159.21 156.245 158.67 156.41 158.13 156.41C157.185 156.41 156.48 155.975 156.27 154.97H160.665C160.71 154.76 160.755 154.37 160.755 153.95C160.755 151.925 159.705 150.365 157.545 150.365C155.76 150.365 154.02 151.85 154.02 154.265C154.02 156.755 155.67 158.18 157.8 158.18ZM156.24 153.41C156.39 152.54 156.945 152.12 157.605 152.12C158.445 152.12 158.775 152.675 158.775 153.41H156.24Z" fill="#616060"/>
<rect x="1" y="1" width="228" height="228" rx="114" stroke="#616060" stroke-width="2" stroke-dasharray="4 4"/>
<defs>
<clipPath id="clip0_8638_20340">
<rect width="65" height="48" fill="white" transform="translate(82.5 67)"/>
</clipPath>
</defs>
</svg>
