<svg width="15" height="16" viewBox="0 0 15 16" fill="none" xmlns="http://www.w3.org/2000/svg">
<path d="M7.5 0.0012207C3.36 0.0012207 0 3.36122 0 7.50122C0 11.6412 3.36 15.0012 7.5 15.0012C11.64 15.0012 15 11.6412 15 7.50122C15 3.36122 11.64 0.0012207 7.5 0.0012207ZM12.5 7.50122C12.5 8.41122 12.24 9.26122 11.8 10.0012L5 3.20122C5.74 2.77122 6.59 2.50122 7.5 2.50122C10.26 2.50122 12.5 4.74122 12.5 7.50122ZM2.5 7.50122C2.5 6.57122 2.77 5.70122 3.22 4.95122L10.05 11.7812C9.3 12.2312 8.44 12.5012 7.5 12.5012C4.74 12.5012 2.5 10.2612 2.5 7.50122Z" fill="black"/>
</svg>
