<svg width="26" height="25" viewBox="0 0 26 25" fill="none" xmlns="http://www.w3.org/2000/svg">
<g clip-path="url(#clip0_8643_23059)">
<path d="M0.5 20.2637C0.5 15.0879 0.5 9.91211 0.5 4.73633C0.516113 4.68311 0.538574 4.63135 0.546875 4.57715C0.873047 2.46533 2.03613 1.02979 4.04004 0.292969C4.42285 0.152344 4.83691 0.0957031 5.23633 0C10.4121 0 15.5879 0 20.7637 0C20.8169 0.0161133 20.8691 0.0385742 20.9233 0.046875C23.0327 0.372559 24.4678 1.53467 25.2051 3.53418C25.3521 3.93311 25.4043 4.36719 25.5 4.78516V20.2148C25.4839 20.2852 25.4609 20.3545 25.4521 20.4253C25.2085 22.4932 23.7036 24.248 21.6895 24.7979C21.3701 24.8853 21.04 24.9336 20.7148 24.9995H5.28516C5.22266 24.9839 5.16113 24.9614 5.09766 24.9541C3.0083 24.71 1.25977 23.2163 0.700684 21.1865C0.616699 20.8838 0.565918 20.5713 0.5 20.2637ZM23.4185 12.4985C23.4185 10.1226 23.4194 7.74707 23.4165 5.37109C23.4165 5.14404 23.4146 4.9126 23.374 4.69092C23.085 3.1123 21.834 2.0835 20.1992 2.08252C15.3989 2.07959 10.5981 2.08105 5.79785 2.08301C5.59521 2.08301 5.38867 2.0874 5.19043 2.12402C3.60889 2.41699 2.58301 3.66357 2.58252 5.29932C2.58008 10.0996 2.58105 14.9004 2.58301 19.7007C2.58301 19.9033 2.5874 20.1099 2.62402 20.3081C2.91699 21.8872 4.16699 22.916 5.7998 22.917C10.6001 22.9199 15.4009 22.9185 20.2012 22.9165C20.4038 22.9165 20.6099 22.9111 20.8086 22.8745C22.3857 22.5835 23.415 21.3315 23.4175 19.6992C23.4214 17.2988 23.4185 14.8989 23.4185 12.4985Z" fill="#616060"/>
<path d="M20.7148 25C21.04 24.9336 21.3701 24.8853 21.6895 24.7983C23.7036 24.248 25.2085 22.4932 25.4521 20.4258C25.4604 20.3545 25.4834 20.2856 25.5 20.2153V25.0005H20.7148V25Z" fill="white"/>
<path d="M25.5 4.78516C25.4043 4.36719 25.3525 3.93311 25.2051 3.53418C24.4678 1.53467 23.0327 0.372559 20.9233 0.046875C20.8691 0.0385742 20.8169 0.0161133 20.7637 0C22.3423 0 23.9214 0 25.5 0V4.78516Z" fill="white"/>
<path d="M0.5 20.2637C0.565918 20.5713 0.616699 20.8838 0.700195 21.1865C1.25928 23.2163 3.00781 24.7104 5.09717 24.9541C5.16064 24.9614 5.22217 24.9844 5.28467 24.9995H0.5C0.5 23.4214 0.5 21.8423 0.5 20.2637Z" fill="white"/>
<path d="M5.23633 0C4.83691 0.0957031 4.42285 0.152344 4.04004 0.292969C2.03613 1.02979 0.873047 2.46533 0.546875 4.57715C0.538574 4.63135 0.516113 4.68311 0.5 4.73633C0.5 3.16162 0.5 1.58691 0.5 0C2.07861 0 3.65771 0 5.23633 0Z" fill="white"/>
<path d="M23.4184 12.4985C23.4184 14.8989 23.4213 17.2988 23.4174 19.6992C23.415 21.3315 22.3857 22.5834 20.8085 22.8745C20.6103 22.9111 20.4038 22.9165 20.2011 22.9165C15.4008 22.9189 10.6 22.9199 5.79975 22.9169C4.16694 22.916 2.91694 21.8867 2.62397 20.3081C2.58735 20.1098 2.58296 19.9033 2.58296 19.7006C2.581 14.9003 2.57954 10.0996 2.58247 5.29926C2.58344 3.66352 3.60932 2.41694 5.19038 2.12397C5.38862 2.08735 5.59516 2.08296 5.7978 2.08296C10.5981 2.081 15.3989 2.07954 20.1992 2.08247C21.8334 2.08344 23.0844 3.11176 23.374 4.69087C23.4145 4.91303 23.4165 5.14399 23.4165 5.37104C23.4194 7.74702 23.4184 10.1225 23.4184 12.4985ZM13.2309 14.3754C13.1538 14.3022 13.0893 14.2431 13.0273 14.1811C12.2446 13.3989 11.4643 12.6142 10.6796 11.8339C10.1684 11.3256 9.57905 11.3276 9.06928 11.8364C7.90034 13.0034 6.73237 14.1713 5.56489 15.3398C5.34614 15.5585 5.11762 15.7685 4.91547 16.0019C4.43159 16.5595 4.66889 17.4252 5.36421 17.6538C5.80561 17.7988 6.17573 17.6635 6.49555 17.3432C7.55317 16.2836 8.61323 15.2265 9.67329 14.1689C9.7353 14.1074 9.80073 14.0493 9.8437 14.0092C10.5082 14.6757 11.1596 15.3291 11.8198 15.9912C11.7919 16.0249 11.747 16.082 11.6992 16.1362C10.8471 17.1093 9.99702 18.0844 9.14106 19.0546C8.87153 19.3598 8.7729 19.7021 8.88813 20.0927C8.99848 20.4658 9.25385 20.7055 9.63081 20.7949C10.0703 20.8989 10.4238 20.7431 10.7163 20.4082C12.4775 18.3925 14.2416 16.3793 16.0053 14.3662C16.4062 13.9082 16.8085 13.4516 17.2421 12.958C17.3124 13.0463 17.3618 13.123 17.4248 13.186C18.1191 13.8837 18.8164 14.5791 19.5117 15.2758C19.769 15.5336 20.0751 15.6625 20.4394 15.5991C20.85 15.5273 21.1376 15.2919 21.2607 14.8896C21.3857 14.4809 21.2856 14.1196 20.9824 13.8164C19.9707 12.8027 18.9609 11.7875 17.9467 10.7763C17.4428 10.2739 16.8037 10.3027 16.329 10.8427C15.8671 11.3681 15.4077 11.8959 14.9462 12.4218C14.3784 13.0693 13.81 13.7163 13.2309 14.3764V14.3754ZM10.9057 7.29926C10.9086 5.57368 9.5229 4.17671 7.79975 4.16889C6.08881 4.16108 4.67719 5.56489 4.66987 7.28217C4.66255 8.99848 6.06196 10.4028 7.78217 10.4057C9.51264 10.4086 10.9023 9.0268 10.9052 7.29975L10.9057 7.29926Z" fill="white"/>
<path d="M13.231 14.3754C13.8101 13.7157 14.3785 13.0687 14.9464 12.4208C15.4078 11.8949 15.8673 11.3671 16.3292 10.8417C16.8038 10.3017 17.443 10.2728 17.9469 10.7753C18.961 11.7865 19.9708 12.8021 20.9825 13.8153C21.2857 14.119 21.3858 14.4799 21.2608 14.8886C21.1378 15.2909 20.8502 15.5258 20.4395 15.598C20.0748 15.662 19.7691 15.5331 19.5118 15.2748C18.8165 14.578 18.1192 13.8827 17.4249 13.185C17.3619 13.122 17.3126 13.0453 17.2423 12.9569C16.8087 13.4506 16.4068 13.9076 16.0055 14.3651C14.2418 16.3788 12.4776 18.392 10.7164 20.4071C10.4234 20.7421 10.0699 20.8978 9.63094 20.7938C9.25399 20.7045 8.99862 20.4647 8.88827 20.0917C8.77303 19.7011 8.87216 19.3588 9.1412 19.0536C9.99667 18.0834 10.8473 17.1083 11.6993 16.1352C11.7472 16.081 11.7916 16.0238 11.8199 15.9901C11.1598 15.328 10.5084 14.6747 9.84384 14.0082C9.80087 14.0482 9.73544 14.1063 9.67342 14.1679C8.61385 15.2255 7.5538 16.2826 6.49569 17.3422C6.17587 17.663 5.80575 17.7978 5.36434 17.6527C4.66903 17.4247 4.43173 16.5585 4.91561 16.0009C5.11776 15.768 5.34628 15.5575 5.56503 15.3388C6.733 14.1708 7.90048 13.0023 9.06942 11.8353C9.57919 11.3266 10.1685 11.3246 10.6798 11.8329C11.4644 12.6132 12.2447 13.3978 13.0274 14.1801C13.0894 14.2421 13.1539 14.3012 13.231 14.3744V14.3754Z" fill="#616060"/>
<path d="M10.9058 7.29984C10.9029 9.02689 9.51321 10.4087 7.78274 10.4058C6.06253 10.4029 4.66311 8.99857 4.67044 7.28226C4.67776 5.56497 6.08938 4.16117 7.80032 4.16898C9.52347 4.17679 10.9092 5.57376 10.9063 7.29935L10.9058 7.29984ZM6.74661 7.29984C6.75003 7.86917 7.22024 8.33939 7.78763 8.34183C8.35891 8.34427 8.84768 7.85306 8.84134 7.28324C8.83499 6.70365 8.35452 6.23831 7.77102 6.2471C7.2012 6.2554 6.74319 6.72611 6.74661 7.29984Z" fill="#616060"/>
<path d="M6.7466 7.29991C6.74318 6.7257 7.20119 6.25548 7.77102 6.24718C8.35451 6.23888 8.83498 6.70372 8.84133 7.28331C8.84768 7.85362 8.35891 8.34435 7.78762 8.34191C7.22023 8.33946 6.75002 7.86925 6.7466 7.29991Z" fill="white"/>
</g>
<defs>
<clipPath id="clip0_8643_23059">
<rect width="25" height="25" fill="white" transform="translate(0.5)"/>
</clipPath>
</defs>
</svg>
