<svg width="16" height="18" viewBox="0 0 16 18" fill="none" xmlns="http://www.w3.org/2000/svg">
<path d="M6.99489 8.14034C9.06133 8.14034 10.7315 6.41126 10.7315 4.27188C10.7315 2.1325 9.06133 0.403412 6.99489 0.403412C4.92844 0.403412 3.2583 2.1325 3.2583 4.27188C3.2583 6.41126 4.92844 8.14034 6.99489 8.14034ZM6.99489 1.95666C8.23098 1.95666 9.24061 2.99216 9.24061 4.28165C9.24061 5.57113 8.24042 6.60663 6.99489 6.60663C5.74936 6.60663 4.74916 5.57113 4.74916 4.28165C4.74916 2.99216 5.74936 1.95666 6.99489 1.95666Z" fill="white"/>
<path d="M7.12696 9.67405H4.48492C2.38074 9.67405 0.672852 11.4422 0.672852 13.6207V16.8151C0.672852 17.2449 1.00311 17.5868 1.41828 17.5868C1.83346 17.5868 2.16371 17.2449 2.16371 16.8151V13.6207C2.16371 12.2921 3.20165 11.2175 4.48492 11.2175H7.12696C7.54213 11.2175 7.87239 10.8756 7.87239 10.4458C7.87239 10.016 7.54213 9.67405 7.12696 9.67405Z" fill="white"/>
<path d="M8.77858 17.538C7.91992 16.7174 7.18392 15.887 6.39132 15.0664L5.39111 14.031V13.9626C5.72137 13.6207 6.05163 13.3471 6.39132 12.9857L8.71253 15.3986C8.77858 15.3302 8.84463 15.2618 8.91068 15.2618C10.4393 13.6109 12.0339 11.96 13.6286 10.3774C13.6946 10.309 13.6946 10.2406 13.7701 10.1723H13.8362L14.8269 11.2078C12.836 13.3471 10.845 15.4084 8.77858 17.538Z" fill="white"/>
</svg>
